<svg xmlns="http://www.w3.org/2000/svg" viewBox="0 0 304 182" role="img" aria-label="AWS">
  <path fill="#252f3e" d="M86.4 66.4c0 2.4.2 4.4.7 5.8.5 1.5 1.1 3.1 2 4.8.3.5.5 1 .5 1.5 0 .6-.4 1.2-1.2 1.8l-4 2.7c-.6.4-1.1.6-1.6.6-.6 0-1.2-.3-1.9-1-1.1-1-2.1-2.3-3-3.8-5 5.9-11.2 8.8-18.7 8.8-5.3 0-9.6-1.5-12.7-4.6-3.1-3.1-4.7-7.1-4.7-12.1 0-5.4 1.9-9.8 5.8-13.2 3.9-3.4 9.1-5.1 15.6-5.1 2.2 0 4.4.2 6.7.5 2.4.3 4.8.8 7.3 1.4v-4.7c0-4.8-.5-8.2-3-10.2-2-2-5.5-2.9-10.4-2.9-2.2 0-4.5.2-6.9.8-2.4.6-4.7 1.3-6.9 2.2-.8.4-1.4.6-1.8.6-.7 0-1-.5-1-2v-3.1c0-1 .2-1.8.4-2.2.3-.4.8-.8 1.8-1.3 2.2-1.1 4.9-2.1 8.1-2.9 3.2-.8 6.6-1.2 10.2-1.2 7.6 0 13.2 1.7 16.7 5.2 3.5 3.4 5.3 8.7 5.3 15.7v20.6zm-25.8 9.7c2.1 0 4.3-.4 6.6-1.2 2.3-.8 4.3-2.2 6-4.1 1-1.2 1.8-2.5 2.2-4 .4-1.5.7-3.4.7-5.5v-2.7c-2.3-.5-4.6-.8-6.8-1.1-2.2-.3-4.4-.5-6.6-.5-4.3 0-7.4.8-9.5 2.5-2.1 1.7-3.1 4.1-3.1 7.3 0 3 .9 5.2 2.4 6.8 1.5 1.6 3.8 2.4 6.6 2.4zm51.1 17.2c-21 15.4-51.5 23.6-77.7 23.6-36.8 0-70-13.6-95.2-36.3-2-1.8-.1-4.2 2.2-2.8 27 15.7 60.4 25.2 94.9 25.2 23.3 0 49-4.8 72.6-14.8 3.6-1.6 6.5.9 3.2 5.1zM192.5 169.4c-2.7-3.4-17.7-1.6-24.6-.8-2 0-2.3-1.5-.5-2.8 12-8.8 31.7-6.3 34-3.3 2.3 3-0.6 18.8-16.9 26.7-1.7.9-3.4.4-2.6-1.2 2.5-6.2 8.1-20.1 5.6-23.6z"/>
  <path fill="#f90" d="M219.9 145.5c-2.4 3.1-15.8 1.5-21.9.7-1.8 0-2.1-1.4-.4-2.6 10.8-7.9 28.5-5.7 30.6-3 2.1 2.7-.5 16.9-15.2 24-1.5.8-3 .3-2.3-1.1 2.3-5.6 7.3-18.1 5.1-21.1z"/>
</svg>
