<svg xmlns="http://www.w3.org/2000/svg" viewBox="0 0 120 40" role="img" aria-label="Tata">
  <path fill="#1c4da1" d="M12.5 8.2c2.4-.1 4.8.1 7.1.7 2.8.7 5.2 2.1 7 4.1 1.5 1.7 2.3 3.8 2.3 6.1 0 3.2-1.2 5.9-3.4 7.9-2.4 2.2-5.8 3.4-9.9 3.6H8.1V8.2h4.4zm-.3 14.8h3.1c2.2 0 3.9-.5 5-1.6 1-1 1.5-2.4 1.5-4.1 0-1.6-.4-2.9-1.3-3.8-1.2-1.2-3.1-1.8-5.7-1.8h-2.6v11.3z"/>
  <path fill="#1c4da1" d="M38.2 8.2h4.1l9.2 22.3h-4.6l-1.8-4.6H34.9l-1.7 4.6h-4.5l9.5-22.3zm5.4 13.7 3.2-8.6 3.2 8.6h-6.4z"/>
  <path fill="#1c4da1" d="M58.8 8.2h4.2v18.5h10.1v3.8H58.8V8.2z"/>
  <path fill="#1c4da1" d="M78.2 8.2H95c3.5 0 6.1.8 7.9 2.5 1.6 1.5 2.4 3.6 2.4 6.1 0 2.8-1 5.1-2.9 6.8-2.1 1.9-5.3 2.9-9.4 2.9H82.4v11.9h-4.2V8.2zm3.8 15.1h3.4c2.4 0 4.2-.5 5.3-1.4 1.1-.9 1.6-2.2 1.6-3.9 0-1.5-.4-2.7-1.2-3.5-1.1-1-2.8-1.5-5.1-1.5h-4V23.3z"/>
</svg>
