<svg width="42" height="42" viewBox="0 0 42 42" fill="none" xmlns="http://www.w3.org/2000/svg">
<path d="M2.98338 29.6832C3.27746 30.425 3.34293 31.2378 3.17138 32.0172L1.04138 38.5971C0.972751 38.9308 0.990496 39.2765 1.09293 39.6014C1.19537 39.9263 1.37911 40.2197 1.62672 40.4536C1.87432 40.6876 2.1776 40.8545 2.50778 40.9384C2.83796 41.0223 3.1841 41.0205 3.51338 40.9331L10.3394 38.9371C11.0748 38.7912 11.8364 38.855 12.5374 39.1211C16.8081 41.1155 21.6461 41.5375 26.1977 40.3125C30.7492 39.0876 34.7219 36.2944 37.4147 32.4259C40.1076 28.5573 41.3476 23.862 40.9159 19.1683C40.4843 14.4747 38.4087 10.0843 35.0555 6.77174C31.7022 3.45922 27.2868 1.43746 22.5881 1.06318C17.8895 0.688899 13.2096 1.98614 9.37426 4.72604C5.53888 7.46593 2.79444 11.4724 1.62517 16.0385C0.455894 20.6047 0.936921 25.4371 2.98338 29.6832Z" stroke="#1538B0" stroke-width="2" stroke-linecap="round" stroke-linejoin="round"/>
</svg>
