<svg width="42" height="43" viewBox="0 0 42 43" fill="none" xmlns="http://www.w3.org/2000/svg">
<path d="M37 15.3529C38.0609 15.3529 39.0783 15.785 39.8284 16.554C40.5786 17.3231 41 18.3662 41 19.4538V40.5444C41 40.8323 40.9167 41.1137 40.7606 41.3531C40.6046 41.5925 40.3828 41.779 40.1234 41.8892C39.8639 41.9994 39.5784 42.0282 39.303 41.972C39.0276 41.9159 38.7746 41.7773 38.576 41.5737L34.172 37.0587C33.422 36.2896 32.4048 35.8574 31.344 35.8571H17C15.9391 35.8571 14.9217 35.4251 14.1716 34.656C13.4214 33.887 13 32.8439 13 31.7563V29.7059M29 17.4034C29 18.491 28.5786 19.534 27.8284 20.3031C27.0783 21.0721 26.0609 21.5042 25 21.5042H10.656C9.59522 21.5044 8.57797 21.9366 7.828 22.7057L3.424 27.2208C3.22541 27.4243 2.97241 27.5629 2.69698 27.6191C2.42155 27.6753 2.13606 27.6464 1.87661 27.5363C1.61717 27.4261 1.39541 27.2395 1.23937 27.0002C1.08334 26.7608 1.00004 26.4794 1 26.1915V5.10084C1 4.01323 1.42143 2.97016 2.17157 2.20111C2.92172 1.43205 3.93913 1 5 1H25C26.0609 1 27.0783 1.43205 27.8284 2.20111C28.5786 2.97016 29 4.01323 29 5.10084V17.4034Z" stroke="#1538B0" stroke-width="2" stroke-linecap="round" stroke-linejoin="round"/>
</svg>
