<svg width="139" height="30" viewBox="0 0 139 30" fill="none" xmlns="http://www.w3.org/2000/svg">
<path fill-rule="evenodd" clip-rule="evenodd" d="M33.0061 11.0955C32.7873 11.9151 32.3633 12.5167 31.734 12.9009C31.104 13.2849 30.2204 13.4774 29.0806 13.4774H25.4595L26.7307 8.71394H30.3518C31.4907 8.71394 32.2726 8.906 32.6974 9.29005C33.1214 9.67454 33.2249 10.2762 33.0061 11.0955ZM36.7561 10.9928C37.2166 9.26918 37.0257 7.94584 36.1837 7.02396C35.3415 6.10208 33.866 5.64139 31.7586 5.64139H23.6753L18.8102 23.8733H22.7373L24.6988 16.524H27.2743C27.8518 16.524 28.3064 16.6181 28.6388 16.8059C28.972 16.9941 29.1671 17.327 29.2273 17.8044L29.9278 23.8733H34.1356L33.453 18.2145C33.3139 16.9511 32.7382 16.2085 31.7264 15.9866C33.0163 15.6115 34.0966 14.9877 34.9667 14.1169C35.836 13.2466 36.433 12.2055 36.7561 10.9928Z" fill="#D8DDEC"/>
<path fill-rule="evenodd" clip-rule="evenodd" d="M46.3006 17.3437C45.9725 18.5725 45.467 19.5118 44.7843 20.1603C44.1009 20.8092 43.2834 21.1333 42.3319 21.1333C41.3617 21.1333 40.7037 20.8135 40.3568 20.1731C40.0082 19.5331 39.9964 18.6074 40.3204 17.3947C40.6435 16.1829 41.159 15.2355 41.8688 14.5521C42.5777 13.8699 43.408 13.5281 44.3603 13.5281C45.3118 13.5281 45.9563 13.8572 46.2904 14.5142C46.6246 15.1713 46.6288 16.1144 46.3006 17.3437ZM48.0221 10.8906L47.5303 12.7344C47.3174 12.0684 46.9061 11.5396 46.2972 11.147C45.6875 10.7544 44.9319 10.5577 44.0312 10.5577C42.9263 10.5577 41.8637 10.8438 40.8444 11.4157C39.8251 11.9879 38.9338 12.7944 38.1715 13.8355C37.4091 14.877 36.8502 16.0633 36.4949 17.3947C36.1396 18.7267 36.0683 19.9002 36.282 20.9157C36.4957 21.9317 36.9587 22.7126 37.6719 23.2589C38.3843 23.8056 39.3019 24.0781 40.4238 24.0781C41.3244 24.0781 42.1826 23.8904 42.9968 23.5148C43.8108 23.1397 44.5019 22.6185 45.0709 21.9529L44.558 23.8733H48.357L51.8213 10.8906H48.0221Z" fill="#D8DDEC"/>
<path fill-rule="evenodd" clip-rule="evenodd" d="M65.4822 10.8906H54.4409L53.6691 13.7844H60.0946L51.5991 21.1588L50.874 23.8733H62.2724L63.0449 20.98H56.1607L64.7851 13.5025L65.4822 10.8906Z" fill="#D8DDEC"/>
<path fill-rule="evenodd" clip-rule="evenodd" d="M75.2031 17.3181C74.8613 18.598 74.355 19.5548 73.6851 20.1863C73.0152 20.8178 72.2045 21.1333 71.253 21.1333C69.2635 21.1333 68.6088 19.8622 69.2873 17.3181C69.6248 16.0547 70.1336 15.1031 70.8137 14.4631C71.4946 13.8227 72.319 13.5025 73.2883 13.5025C74.2397 13.5025 74.8817 13.8227 75.2125 14.4631C75.5431 15.1031 75.5406 16.0547 75.2031 17.3181ZM77.4258 11.3769C76.5515 10.831 75.4346 10.5577 74.0744 10.5577C72.6972 10.5577 71.4217 10.831 70.2473 11.3769C69.0728 11.9236 68.0729 12.7089 67.2478 13.7329C66.4217 14.7573 65.8265 15.9522 65.4618 17.3181C65.0971 18.6841 65.0548 19.8785 65.3346 20.9029C65.6136 21.9274 66.1937 22.7126 67.0773 23.2589C67.9601 23.8056 69.0896 24.0781 70.4669 24.0781C71.8271 24.0781 73.0898 23.8056 74.2559 23.2589C75.4202 22.7126 76.4166 21.9274 77.2426 20.9029C78.0677 19.8785 78.663 18.6841 79.0277 17.3181C79.3924 15.9522 79.4348 14.7573 79.1557 13.7329C78.8759 12.7089 78.2992 11.9236 77.4258 11.3769Z" fill="#D8DDEC"/>
<path fill-rule="evenodd" clip-rule="evenodd" d="M117.163 17.3437C116.835 18.5725 116.329 19.5118 115.646 20.1603C114.964 20.8092 114.144 21.1333 113.193 21.1333C112.225 21.1333 111.566 20.8135 111.219 20.1731C110.87 19.5331 110.858 18.6074 111.182 17.3947C111.505 16.1829 112.021 15.2355 112.731 14.5521C113.44 13.8699 114.27 13.5281 115.222 13.5281C116.174 13.5281 116.818 13.8572 117.152 14.5142C117.487 15.1713 117.491 16.1144 117.163 17.3437ZM118.884 10.8906L118.392 12.7344C118.179 12.0684 117.768 11.5396 117.159 11.147C116.55 10.7544 115.794 10.5577 114.893 10.5577C113.788 10.5577 112.726 10.8438 111.706 11.4157C110.687 11.9879 109.796 12.7944 109.033 13.8355C108.271 14.877 107.712 16.0633 107.357 17.3947C107.002 18.7267 106.931 19.9002 107.144 20.9157C107.358 21.9317 107.82 22.7126 108.534 23.2589C109.246 23.8056 110.164 24.0781 111.286 24.0781C112.186 24.0781 113.045 23.8904 113.859 23.5148C114.673 23.1397 115.364 22.6185 115.933 21.9529L115.42 23.8733H119.219L122.683 10.8906H118.884Z" fill="#D8DDEC"/>
<path fill-rule="evenodd" clip-rule="evenodd" d="M90.9713 14.3733L91.9398 10.8395C91.6107 10.6688 91.1748 10.5833 90.6313 10.5833C89.7637 10.5833 88.9284 10.8008 88.1236 11.2364C87.4325 11.6101 86.844 12.1346 86.347 12.7918L86.8508 10.8888L85.7508 10.8907H83.0528L79.562 23.8733H83.4137L85.2242 17.0878C85.488 16.0978 85.9612 15.3254 86.6455 14.7706C87.3282 14.2158 88.1804 13.9381 89.2006 13.9381C89.8298 13.9381 90.4192 14.0833 90.9713 14.3733Z" fill="#D8DDEC"/>
<path fill-rule="evenodd" clip-rule="evenodd" d="M101.692 17.3946C101.369 18.6072 100.867 19.5329 100.186 20.1729C99.5046 20.8133 98.6887 21.1331 97.7373 21.1331C96.785 21.1331 96.1363 20.809 95.7911 20.1601C95.4451 19.5116 95.4366 18.5727 95.7647 17.3434C96.093 16.1142 96.6034 15.171 97.2972 14.514C97.9908 13.857 98.8143 13.5278 99.7666 13.5278C100.701 13.5278 101.336 13.8698 101.673 14.5523C102.009 15.2353 102.016 16.1831 101.692 17.3946ZM104.384 11.4154C103.669 10.8436 102.759 10.5579 101.655 10.5579C100.686 10.5579 99.7633 10.7797 98.8897 11.2234C98.0138 11.668 97.304 12.273 96.7595 13.0416L96.7718 12.9564L97.4189 10.8886H96.6743V10.8905H93.6591L92.7017 14.4806C92.6907 14.5223 92.6814 14.5612 92.6703 14.6034L88.7211 29.4043H92.572L94.5606 21.9532C94.7556 22.6183 95.161 23.1394 95.775 23.5146C96.3889 23.8901 97.1462 24.0779 98.0477 24.0779C99.1697 24.0779 100.236 23.8054 101.25 23.2587C102.262 22.7128 103.143 21.9314 103.889 20.9155C104.636 19.9004 105.187 18.7264 105.543 17.3946C105.898 16.0631 105.972 14.8768 105.766 13.8353C105.56 12.7942 105.098 11.9877 104.384 11.4154Z" fill="#D8DDEC"/>
<path fill-rule="evenodd" clip-rule="evenodd" d="M138.63 10.8943L138.632 10.8907H136.3C136.225 10.8907 136.159 10.8928 136.091 10.8943H134.88L134.261 11.7604C134.212 11.8256 134.162 11.8913 134.109 11.9675L134.041 12.0678L129.121 18.9485L128.101 10.8907H124.072L126.112 23.135L121.605 29.4045H125.62L126.713 27.8508C126.745 27.8045 126.772 27.7666 126.807 27.7177L138.626 10.8996L138.632 10.8943H138.63Z" fill="#D8DDEC"/>
<path fill-rule="evenodd" clip-rule="evenodd" d="M8.91351 7.73008L7.76071 11.9903L14.3571 7.70613L10.0433 23.8693L14.4239 23.8733L20.7965 0L8.91351 7.73008Z" fill="#D8DDEC"/>
<path fill-rule="evenodd" clip-rule="evenodd" d="M1.81356 17.0785L0 23.8733H8.97936C8.97936 23.8733 12.6521 10.054 12.6532 10.0501C12.6497 10.0523 1.81356 17.0785 1.81356 17.0785Z" fill="#D8DDEC"/>
</svg>
