<svg width="34" height="32" viewBox="0 0 34 32" fill="none" xmlns="http://www.w3.org/2000/svg">
<path d="M21.7973 15.2145L6.79688 30.0181C6.48163 30.3293 6.10735 30.5762 5.69542 30.7447C5.28349 30.9132 4.84197 30.9999 4.39606 31C3.49552 31.0001 2.6318 30.6472 1.99492 30.0189C1.35803 29.3906 1.00015 28.5383 1 27.6496C0.99985 26.7609 1.35744 25.9085 1.99412 25.28L16.9961 10.4763M26.5985 19.9527L33 13.6351M32.1998 14.4248L29.1367 11.4019C28.5364 10.8096 28.199 10.0063 28.1988 9.16861V8.6253C28.1987 7.7876 27.8613 6.98429 27.261 6.39204L24.6092 3.77499C22.8089 1.99867 20.3676 1.00054 17.8219 1H12.195L14.1843 2.96318C15.9846 4.74019 16.996 7.1501 16.9961 9.66295V12.0557L20.1969 15.2145H22.0726C22.9214 15.2147 23.7354 15.5476 24.3355 16.14L27.3986 19.163" stroke="#1538B0" stroke-width="2" stroke-linecap="round" stroke-linejoin="round"/>
</svg>
