<svg width="27" height="27" viewBox="0 0 27 27" fill="none" xmlns="http://www.w3.org/2000/svg">
<path d="M12.4325 18.3175C12.5726 18.1772 12.739 18.0659 12.9222 17.99C13.1054 17.914 13.3017 17.8749 13.5 17.8749C13.6983 17.8749 13.8946 17.914 14.0778 17.99C14.261 18.0659 14.4274 18.1772 14.5675 18.3175L16.5175 20.2675C16.9864 20.7362 17.2499 21.372 17.25 22.035V24.75C17.25 25.0815 17.1183 25.3995 16.8839 25.6339C16.6495 25.8683 16.3315 26 16 26H11C10.6685 26 10.3505 25.8683 10.1161 25.6339C9.8817 25.3995 9.75 25.0815 9.75 24.75V22.035C9.75014 21.372 10.0136 20.7362 10.4825 20.2675L12.4325 18.3175Z" stroke="white" stroke-width="2" stroke-linecap="round" stroke-linejoin="round"/>
<path d="M22.035 17.25C21.372 17.2499 20.7362 16.9864 20.2675 16.5175L18.3175 14.5675C18.1772 14.4274 18.0659 14.261 17.99 14.0778C17.914 13.8946 17.8749 13.6983 17.8749 13.5C17.8749 13.3017 17.914 13.1054 17.99 12.9222C18.0659 12.739 18.1772 12.5726 18.3175 12.4325L20.2675 10.4825C20.7362 10.0136 21.372 9.75014 22.035 9.75H24.75C25.0815 9.75 25.3995 9.8817 25.6339 10.1161C25.8683 10.3505 26 10.6685 26 11V16C26 16.3315 25.8683 16.6495 25.6339 16.8839C25.3995 17.1183 25.0815 17.25 24.75 17.25H22.035Z" stroke="white" stroke-width="2" stroke-linecap="round" stroke-linejoin="round"/>
<path d="M6.7325 16.5175C6.26377 16.9864 5.62799 17.2499 4.965 17.25H2.25C1.91848 17.25 1.60054 17.1183 1.36612 16.8839C1.1317 16.6495 1 16.3315 1 16V11C1 10.6685 1.1317 10.3505 1.36612 10.1161C1.60054 9.8817 1.91848 9.75 2.25 9.75H4.965C5.62799 9.75014 6.26377 10.0136 6.7325 10.4825L8.6825 12.4325C8.8228 12.5726 8.9341 12.739 9.01003 12.9222C9.08597 13.1054 9.12506 13.3017 9.12506 13.5C9.12506 13.6983 9.08597 13.8946 9.01003 14.0778C8.9341 14.261 8.8228 14.4274 8.6825 14.5675L6.7325 16.5175Z" stroke="white" stroke-width="2" stroke-linecap="round" stroke-linejoin="round"/>
<path d="M9.75 2.25C9.75 1.91848 9.8817 1.60054 10.1161 1.36612C10.3505 1.1317 10.6685 1 11 1H16C16.3315 1 16.6495 1.1317 16.8839 1.36612C17.1183 1.60054 17.25 1.91848 17.25 2.25V4.965C17.2499 5.62799 16.9864 6.26377 16.5175 6.7325L14.5675 8.6825C14.4274 8.8228 14.261 8.9341 14.0778 9.01003C13.8946 9.08597 13.6983 9.12506 13.5 9.12506C13.3017 9.12506 13.1054 9.08597 12.9222 9.01003C12.739 8.9341 12.5726 8.8228 12.4325 8.6825L10.4825 6.7325C10.0136 6.26377 9.75014 5.62799 9.75 4.965V2.25Z" stroke="white" stroke-width="2" stroke-linecap="round" stroke-linejoin="round"/>
</svg>
