<svg width="45" height="32" viewBox="0 0 45 32" fill="none" xmlns="http://www.w3.org/2000/svg">
<path d="M43.9648 11.7148V24.5716M9.59094 17.0718V24.5716C9.59094 26.2765 10.949 27.9116 13.3664 29.1172C15.7838 30.3227 19.0624 31 22.4811 31C25.8998 31 29.1785 30.3227 31.5959 29.1172C34.0133 27.9116 35.3713 26.2765 35.3713 24.5716V17.0718M42.7188 13.6904C43.1034 13.5212 43.4297 13.2432 43.6575 12.8908C43.8852 12.5383 44.0042 12.127 43.9999 11.7078C43.9955 11.2885 43.868 10.8798 43.633 10.5321C43.398 10.1845 43.066 9.91323 42.6779 9.75197L24.2643 1.38647C23.7045 1.13179 23.0964 1 22.4811 1C21.8659 1 21.2578 1.13179 20.698 1.38647L2.28649 9.7434C1.90401 9.91048 1.57864 10.1851 1.35016 10.5337C1.12168 10.8823 1 11.2897 1 11.7062C1 12.1227 1.12168 12.5301 1.35016 12.8787C1.57864 13.2273 1.90401 13.5019 2.28649 13.669L20.698 22.0431C21.2578 22.2978 21.8659 22.4296 22.4811 22.4296C23.0964 22.4296 23.7045 22.2978 24.2643 22.0431L42.7188 13.6904Z" stroke="white" stroke-width="2" stroke-linecap="round" stroke-linejoin="round"/>
</svg>
