<svg width="36" height="32" viewBox="0 0 36 32" fill="none" xmlns="http://www.w3.org/2000/svg">
<path d="M18 7.66667V31M18 7.66667C18 5.89856 17.2836 4.20286 16.0083 2.95262C14.7331 1.70238 13.0035 1 11.2 1H2.7C2.24913 1 1.81673 1.17559 1.49792 1.48816C1.17911 1.80072 1 2.22464 1 2.66667V24.3333C1 24.7754 1.17911 25.1993 1.49792 25.5118C1.81673 25.8244 2.24913 26 2.7 26H12.9C14.2526 26 15.5498 26.5268 16.5062 27.4645C17.4627 28.4021 18 29.6739 18 31M18 7.66667C18 5.89856 18.7164 4.20286 19.9917 2.95262C21.2669 1.70238 22.9965 1 24.8 1H33.3C33.7509 1 34.1833 1.17559 34.5021 1.48816C34.8209 1.80072 35 2.22464 35 2.66667V24.3333C35 24.7754 34.8209 25.1993 34.5021 25.5118C34.1833 25.8244 33.7509 26 33.3 26H23.1C21.7474 26 20.4502 26.5268 19.4938 27.4645C18.5373 28.4021 18 29.6739 18 31" stroke="white" stroke-width="2" stroke-linecap="round" stroke-linejoin="round"/>
</svg>
