<svg width="35" height="32" viewBox="0 0 35 32" fill="none" xmlns="http://www.w3.org/2000/svg">
<path d="M15.85 24.1773L19.15 27.4882C19.475 27.8143 19.8609 28.073 20.2855 28.2495C20.7102 28.426 21.1653 28.5168 21.625 28.5168C22.0846 28.5168 22.5398 28.426 22.9645 28.2495C23.3891 28.073 23.775 27.8143 24.1 27.4882C24.425 27.1621 24.6828 26.775 24.8587 26.3489C25.0346 25.9229 25.1252 25.4662 25.1252 25.005C25.1252 24.5439 25.0346 24.0872 24.8587 23.6611C24.6828 23.2351 24.425 22.8479 24.1 22.5218M20.8 19.2109L24.925 23.3496C25.5814 24.0082 26.4717 24.3782 27.4 24.3782C28.3283 24.3782 29.2186 24.0082 29.875 23.3496C30.5314 22.691 30.9002 21.7978 30.9002 20.8664C30.9002 19.935 30.5314 19.0418 29.875 18.3832L23.473 11.96C22.5449 11.03 21.2868 10.5076 19.975 10.5076C18.6632 10.5076 17.4051 11.03 16.477 11.96L15.025 13.4168C14.3686 14.0754 13.4783 14.4454 12.55 14.4454C11.6217 14.4454 10.7314 14.0754 10.075 13.4168C9.41859 12.7582 9.04982 11.865 9.04982 10.9336C9.04982 10.0022 9.41859 9.109 10.075 8.45041L14.7115 3.79857C16.2167 2.29233 18.1796 1.33284 20.2896 1.07197C22.3995 0.811107 24.5359 1.26377 26.3605 2.35831L27.136 2.82184C27.8385 3.24727 28.6739 3.39483 29.479 3.23571L32.35 2.6563M32.35 1.00083L34 19.2109H30.7M2.65 1.00083L1 19.2109L11.725 29.9714C12.3814 30.63 13.2717 31 14.2 31C15.1283 31 16.0186 30.63 16.675 29.9714C17.3314 29.3128 17.7002 28.4196 17.7002 27.4882C17.7002 26.5569 17.3314 25.6636 16.675 25.005M2.65 2.6563H15.85" stroke="white" stroke-width="2" stroke-linecap="round" stroke-linejoin="round"/>
</svg>
