<svg width="20" height="22" viewBox="0 0 20 22" fill="none" xmlns="http://www.w3.org/2000/svg">
<path d="M14 9C14 10.0609 13.5786 11.0783 12.8284 11.8284C12.0783 12.5786 11.0609 13 10 13C8.93915 13 7.92173 12.5786 7.17159 11.8284C6.42144 11.0783 6.00002 10.0609 6.00002 9M1.10302 5.034H18.897M1.40002 4.467C1.14037 4.81319 1.00002 5.23426 1.00002 5.667V19C1.00002 19.5304 1.21073 20.0391 1.5858 20.4142C1.96087 20.7893 2.46958 21 3.00002 21H17C17.5304 21 18.0392 20.7893 18.4142 20.4142C18.7893 20.0391 19 19.5304 19 19V5.667C19 5.23426 18.8597 4.81319 18.6 4.467L16.6 1.8C16.4137 1.55161 16.1722 1.35 15.8944 1.21115C15.6167 1.07229 15.3105 1 15 1H5.00002C4.68953 1 4.3833 1.07229 4.10559 1.21115C3.82788 1.35 3.58631 1.55161 3.40002 1.8L1.40002 4.467Z" stroke="#1538B0" stroke-width="2" stroke-linecap="round" stroke-linejoin="round"/>
</svg>
